<?xml version="1.0" standalone="no"?>
<!DOCTYPE svg PUBLIC "-//W3C//DTD SVG 1.1//EN" "http://www.w3.org/Graphics/SVG/1.1/DTD/svg11.dtd" >
<svg xmlns="http://www.w3.org/2000/svg">
<metadata>Generated by IcoMoon</metadata>
<defs>
<font id="icomoon" horiz-adv-x="1024">
<font-face units-per-em="1024" ascent="960" descent="-64" />
<missing-glyph horiz-adv-x="1024" />
<glyph unicode="&#x20;" horiz-adv-x="512" d="" />
<glyph unicode="&#xe900;" horiz-adv-x="724" d="M-135.254 795.932c310.55 0 621.017 0 931.602 0 20.676 0 41.38 0.327 62.054 0 0.204-0.004 0.915 0.035 1.158 0 0.613-0.089 0.259 0.002 0.462-0.803 0.324-1.275 0.001-3.496 0-5.503-0.013-227.973 0.015-455.249 0-683.277 0-1.845 0.241-3.806 0-5.388-0.010-0.064 0.040-0.524 0-0.687-0.129-0.533-0.69-0.344-1.505-0.344-328.020 0.108-656.594-0.039-984.971 0-2.559 0.001-5.169-0.193-7.641 0-0.574 0.045-0.9-0.074-1.041 0-0.386 0.201-0.231 0.735-0.231 1.377 0 231.791 0 462.451 0 694.282-0.013 0.162-0.022 0.324 0.113 0.343zM345.655 779.308c-6.262-0.495-12.397-1.249-18.408-2.064-35.936-4.866-66.599-14.861-94.468-27.858-41.73-19.462-76.372-45.675-105.12-77.958-3.21-3.604-6.481-7.139-9.493-10.891-12.094-15.066-23.065-31.015-32.764-48.494-14.632-26.372-25.704-54.707-33.11-88.619-2.394-10.96-4.26-22.623-5.557-34.967-1.918-18.257-1.959-39.612-0.463-58.010 1.524-18.74 4.585-35.818 8.683-52.163 10.761-42.925 29.004-79.542 51.749-110.631 14.387-19.664 30.365-37.353 48.508-53.195 10.879-9.499 22.29-18.533 34.499-26.597 8.197-5.413 16.712-10.419 25.47-15.246 17.628-9.717 36.554-17.54 57.191-24.304 20.55-6.736 43.018-11.453 67.61-13.986 18.41-1.897 40.064-1.91 58.811-0.459 31.339 2.424 59.079 9.147 83.934 18.113 10.009 3.612 19.696 7.376 28.942 11.809 9.293 4.454 18.226 8.969 26.743 13.986 17.068 10.056 33.050 21.316 47.581 33.82 3.626 3.121 7.156 6.384 10.651 9.631 3.513 3.262 6.854 6.673 10.303 10.088 13.575 13.443 25.445 28.642 36.584 44.712 11.13 16.060 20.519 33.659 28.827 52.393 8.312 18.747 14.922 38.952 19.795 61.335 2.399 11.010 4.275 22.831 5.442 35.081 1.18 12.392 1.924 25.431 1.505 38.635-0.825 26.006-4.090 49.708-9.609 71.423-8.164 32.126-20.595 60.918-35.656 86.098-10.193 17.038-21.463 32.654-34.152 47.119-12.701 14.477-26.39 27.924-41.563 39.896-7.573 5.976-15.335 11.782-23.5 17.197-16.359 10.848-33.806 20.378-52.79 28.66-18.87 8.232-39.237 14.514-62.054 19.489-16.722 3.648-35.021 5.992-54.527 6.764-6.633 0.263-13.409 0.432-20.145 0.114-6.653-0.316-13.097-0.418-19.449-0.92z" />
<glyph unicode="&#xe901;" horiz-adv-x="724" d="M668.769 479.515c-1.033-0.422-2.199-0.514-3.357-0.688-16.313-2.435-32.857-4.869-49.435-7.222-1.676-0.237-3.052-0.041-3.473-1.146-0.244-0.64 0.249-2.039 0.347-3.21 0.302-3.631 0.435-6.935 0.231-9.974 0.848-0.641 2.015-0.735 3.010-0.917 15.265-2.817 31.11-5.629 46.54-8.484 0.505-0.094 1.095-0.224 1.621-0.344 0.482-0.111 1.17 0.032 1.389-0.573 0.062-0.721-0.726-0.793-1.157-1.033-1.315-0.727-2.731-1.541-4.168-2.293-1.85-0.968-3.769-2.222-5.788-2.753-12.234-3.205-25.133-6.255-37.741-9.401-1.175-0.293-2.478-0.741-3.473-0.803-0.146-0.009-0.317-0.016-0.463 0-3.105 0.343-6.373 1.030-9.609 1.606-8.62 1.535-17.229 2.969-26.164 4.585-0.787 0.142-1.764 0.705-2.547 0.574-14.418-2.44-27.892-4.396-42.14-6.65-1.108-0.176-1.928-0.297-3.012-0.229-0.995 0.063-2.125 0.294-3.241 0.229-0.759-0.045-1.586-0.395-2.43-0.574-2.433-0.512-5.112-0.96-7.41-1.604-3.16-0.887-5.932-2.172-8.683-3.21-1.478-0.557-2.895-0.971-4.283-1.72-3.699-1.998-8.135-4.082-11.461-6.42-1.205-0.847-2.268-1.777-3.473-2.523-3.643-2.253-7.485-4.421-11.23-6.65-4.983-2.965-9.925-6.010-14.934-8.942 0.078-1.069 0.060-2.425-0.116-3.554-0.395-0.797-1.301-0.77-1.968-1.033-0.642-0.252-1.27-0.68-1.852-1.031-27.694-16.74-55.708-33.743-83.7-50.329-4.864-2.883-9.621-5.97-14.472-8.828-4.882-2.877-9.752-5.711-14.47-8.828-3.628-2.059-7.337-4.070-11.115-5.961-1.88-0.941-3.645-2.053-5.556-2.981-0.929-0.45-1.806-1.073-2.779-1.49-0.55-0.236-1.104-0.31-1.621-0.574-0.434-0.223-0.816-0.569-1.273-0.802-1.88-0.96-3.896-1.781-5.904-2.637-1.973-0.842-3.91-1.833-5.904-2.637-1.995-0.805-3.909-1.826-5.904-2.637-2.012-0.819-4.094-1.516-6.135-2.293-2.956-1.126-6.309-2.138-9.724-3.096-1.104-0.31-2.176-0.839-3.241-1.033-1.013-0.184-1.904-0.175-2.779-0.459-0.653-0.213-1.603-0.401-2.547-0.687-0.276-0.084-0.397-0.26-0.695-0.344-1.213-0.341-2.834-0.696-4.167-1.146-0.551-0.186-0.984-0.409-1.505-0.574-0.545-0.171-1.109-0.201-1.737-0.343-1.041-0.237-2.020-0.676-3.357-0.917-3.288-0.594-7.078-1.85-10.767-2.064-2.61-0.151-5.145-0.393-7.756-0.802-1.213-0.19-2.456-0.147-3.705-0.344-2.572-0.405-5.016-0.494-7.525-0.917-1.19-0.201-2.428-0.279-3.588-0.459-2.484-0.384-5-0.65-7.525-0.803-2.547-0.153-5.134-0.406-7.756-0.343-8.241 0.195-16.235 0.433-24.081 1.031-10.362 0.791-20.721 2.15-30.1 4.014-4.778 0.949-9.325 1.904-13.66 3.324-2.189 0.718-4.413 1.192-6.483 2.063-1.977 0.832-3.924 1.756-5.904 2.637-1.935 0.86-3.863 1.835-5.788 2.751-0.939 0.446-1.814 1.025-2.779 1.491-0.971 0.469-2.070 0.64-3.010 1.146-0.903 0.487-1.84 1.136-2.316 1.95-0.403 0.688-0.893 2.17-0.926 3.21-0.071 2.219 1.331 3.592 2.778 5.044 2.765 2.774 5.539 5.059 8.914 7.222 0.485 0.311 0.98 0.605 1.621 0.802 1.704 0.525 3.491 0.809 5.904 0.574 1.772-0.173 3.667-0.476 5.556-0.803 11.034-1.913 21.147-4.257 33.343-5.158 3.985-0.294 8.13-0.42 12.271-0.573 4.161-0.154 8.311-0.642 12.388-0.46 4.059 0.182 8.068 0.343 12.040 0.918 1.949 0.281 3.977 0.238 5.904 0.573 5.437 0.94 11.313 1.292 16.786 2.407 1.823 0.372 3.687 0.6 5.442 1.033 0.825 0.202 1.585 0.631 2.431 0.802 0.92 0.186 1.694 0.271 2.547 0.574 1.668 0.592 3.334 0.967 4.978 1.491 0.881 0.279 1.762 0.324 2.663 0.573 0.397 0.111 0.769 0.379 1.158 0.459 0.461 0.095 0.937 0.005 1.389 0.116 1.601 0.389 3.061 1.359 4.746 1.72 4.255 0.911 7.947 2.749 11.808 4.241 0.429 0.165 0.804 0.277 1.158 0.459 0.325 0.165 0.574 0.381 0.926 0.573 2.836 1.557 6.326 1.835 8.914 3.898 1.571 0.354 2.968 1.249 4.283 1.95 0.917 0.487 1.942 0.713 2.894 1.26 0.423 0.244 0.804 0.578 1.273 0.803 0.948 0.454 2.026 0.667 2.894 1.146 0.431 0.238 0.817 0.583 1.273 0.803 0.463 0.223 1.045 0.322 1.505 0.573 0.871 0.474 1.579 1.244 2.431 1.72 0.483 0.27 0.928 0.418 1.389 0.687 0.778 0.456 1.68 1.153 2.547 1.606 0.467 0.243 0.894 0.375 1.389 0.573 1.817 0.729 3.529 1.981 5.325 2.981 5.219 2.902 10.702 5.926 15.861 8.827 13.929 7.835 28.018 15.636 42.14 23.733 20.873 11.964 42.009 23.5 63.21 35.654 5.038 2.888 10.542 5.904 15.861 8.828 1.826 1.003 3.49 2.316 5.209 2.981 0.168 0.064 0.406-0.052 0.579 0 0.202 0.060 0.572 0.395 0.927 0.459 0.412 0.073 1.436 0.097 1.737-0.116 0.889-0.629 0.106-1.706 1.041-2.407 1.252 0.269 2.205 1.191 3.241 1.835 7.111 4.42 14.464 8.743 21.649 13.299 15.377 2.86 30.825 6.192 46.309 9.057 0.907 0.168 1.975 0.257 2.778 0.803-0.214 2.372-0.764 5.377-0.579 8.598 0.124 2.153 0.276 4.393 0.81 6.305 0.156 0.557 0.607 1.142 0.347 1.72-0.816 0.613-1.919 0.703-2.894 0.917-11.162 2.456-22.559 4.977-33.805 7.451-4.202 0.924-8.373 1.653-12.388 2.637 0.002 0-0.181 0.094-0.231 0.114-1.003 0.42-2.037 1.363-3.126 2.064-6.251 4.020-12.214 7.688-18.639 11.808-0.853 0.547-2.701 1.89-3.241 1.834-0.371-0.038-0.701-0.387-0.926-0.803-0.32-0.59 0.111-0.827-0.58-1.147-0.207-0.096-1.977-0.203-2.547-0.114-0.597 0.094-1.374 0.697-2.315 1.261-22.324 13.378-45.103 26.995-67.263 40.125-23.359 13.84-46.481 27.771-69.462 41.386-5.759 3.413-11.645 6.751-17.481 10.318-1.438 0.879-2.723 1.895-4.284 2.637-1.545 0.735-2.981 1.637-4.515 2.407-1.563 0.786-3.254 1.316-4.863 2.064-1.551 0.721-3.051 1.593-4.63 2.293-1.631 0.721-3.356 1.298-5.094 1.95-3.294 1.233-6.577 2.534-10.072 3.783-3.027 1.084-6.068 1.949-9.262 2.866-1.157 0.332-2.725 0.637-4.167 1.031-1.711 0.468-3.58 0.871-5.557 1.376-0.913 0.232-1.745 0.608-2.663 0.803-1.923 0.405-3.852 0.912-5.788 1.146-1.028 0.124-2 0.367-3.010 0.574-0.485 0.099-1.034 0.13-1.505 0.229-0.461 0.096-0.823 0.367-1.273 0.459-2.020 0.407-4.252 0.354-6.367 0.573-2.041 0.212-4.11 0.381-6.135 0.803-4.145 0.864-8.204 0.771-12.619 0.803-2.085 0.016-4.247 0.157-6.367 0.114-4.272-0.085-8.666-0.23-13.081-0.344-2.122-0.055-4.219-0.024-6.367 0.114-1.050 0.068-1.935-0.145-3.010-0.229-1.153-0.091-2.347 0.052-3.473 0-2.103-0.097-4.26-0.421-6.367-0.573-2.24-0.162-4.418-0.079-6.598-0.344-6.096-0.741-11.876-1.897-18.408-2.407-1.051-0.081-2.094 0.004-3.241 0-1.816-0.006-3.37-0.367-4.746 0.229-1.109 0.482-2.024 1.596-3.010 2.637-0.951 1.005-1.932 2.086-2.663 2.981-1.547 1.893-2.863 3.425-4.053 5.732-0.111 0.215-0.466 0.495-0.347 0.803 0.386 3.728 2.706 5.34 5.788 6.878 1.514 0.757 3.083 1.524 4.399 2.178 1.541 0.765 3.244 1.179 4.746 1.949 1.627 0.834 3.047 1.433 4.746 1.834 1.732 0.41 3.239 1.338 4.978 1.72 0.558 0.123 0.901 0.176 1.389 0.344 1.042 0.359 2.429 0.71 3.82 1.031 3.549 0.82 7.102 1.679 10.882 2.293 5.666 0.921 11.345 1.865 17.25 2.636 1.997 0.262 3.986 0.348 6.021 0.574 8.259 0.915 17.003 0.522 25.585 0.917 1.485 0.068 3.834 0.036 5.673-0.114 1.674-0.137 3.268-0.452 4.63-0.687 0.654 0.491 1.565 0.286 2.316 0.229 2.329-0.178 4.82-0.415 7.177-0.803 3.21-0.528 6.485-0.529 9.609-1.146 6.127-1.211 12.213-2.062 18.060-3.44 5.866-1.382 11.656-2.615 17.25-4.241 0.737-0.214 1.475-0.302 2.2-0.574 4.401-1.653 9.541-2.801 14.008-4.585 5.113-2.042 10.153-4.24 15.166-6.305 3.747-1.543 7.351-3.301 10.998-5.044 0.585-0.28 1.053-0.722 1.621-1.033 0.607-0.33 1.281-0.474 1.852-0.803 1.143-0.657 2.383-1.219 3.473-1.95 0.339-0.227 0.444-0.382 0.81-0.573 0.535-0.279 1.053-0.671 1.621-1.031 0.287-0.181 0.646-0.18 0.927-0.344 0.564-0.331 1.079-0.804 1.621-1.146 0.569-0.36 1.174-0.584 1.737-0.917 1.103-0.652 2.040-1.512 3.126-2.178 4.42-2.714 8.834-5.396 13.198-8.14 33.747-21.22 67.706-42.752 101.878-63.971 1.228-0.763 2.787-1.582 3.125-2.178 0.782-1.372 0.424-4.099 1.39-5.388 3.834-2.563 7.862-4.783 11.809-7.108 3.919-2.309 7.64-4.891 11.577-7.222 1.973-1.169 4.019-2.247 6.020-3.44 0.973-0.58 1.88-1.294 2.895-1.834 1.017-0.54 2.129-0.895 3.126-1.49 2.017-1.202 4.024-2.289 6.135-3.324 4.211-2.065 8.455-3.981 13.314-5.503 2.375-0.744 4.701-1.71 7.293-2.178 2.772-0.5 5.566-0.71 8.337-1.147 2.602-0.41 5.189-1.119 7.756-1.604 5.056-0.957 10.485-1.79 15.744-2.866 3.741-0.765 8-1.483 11.925-2.293 1.303-0.269 2.672-0.787 3.822-0.803 1.484-0.021 3.241 0.54 4.862 0.803 10.444 1.689 21.028 3.239 31.721 4.93 0.855 0.135 1.911 0.522 2.547 0.344 17.132-4.814 34.442-9.462 51.517-14.331 1.079-0.307 2.31-0.328 3.241-1.031 0.119-0.606 0.219-1.233 0.46-1.721z" />
<glyph unicode="&#xe902;" horiz-adv-x="724" d="M365.105 780.226c6.735 0.317 13.511 0.148 20.145-0.114 19.506-0.772 37.805-3.117 54.527-6.764 22.817-4.976 43.184-11.257 62.054-19.489 18.984-8.283 36.431-17.812 52.79-28.66 8.165-5.415 15.929-11.222 23.5-17.197 15.172-11.972 28.862-25.418 41.563-39.896 12.689-14.464 23.959-30.081 34.152-47.119 15.063-25.179 27.493-53.971 35.656-86.098 5.518-21.715 8.785-45.417 9.609-71.423 0.42-13.204-0.326-26.244-1.505-38.635-1.166-12.249-3.043-24.071-5.442-35.081-4.875-22.381-11.483-42.588-19.795-61.335-8.307-18.734-17.696-36.332-28.827-52.393-11.139-16.070-23.009-31.269-36.584-44.712-3.449-3.415-6.791-6.826-10.303-10.088-3.496-3.246-7.024-6.51-10.651-9.631-14.531-12.502-30.512-23.763-47.581-33.82-8.517-5.017-17.452-9.532-26.743-13.986-9.246-4.433-18.932-8.197-28.942-11.809-24.855-8.967-52.595-15.688-83.934-18.113-18.747-1.451-40.401-1.439-58.811 0.459-24.591 2.534-47.060 7.25-67.61 13.986-20.636 6.765-39.563 14.587-57.191 24.304-8.757 4.828-17.273 9.834-25.47 15.246-12.209 8.064-23.62 17.099-34.499 26.597-18.142 15.842-34.121 33.531-48.508 53.195-22.745 31.089-40.988 67.706-51.749 110.631-4.098 16.345-7.158 33.423-8.683 52.163-1.496 18.398-1.455 39.754 0.463 58.010 1.297 12.343 3.164 24.006 5.557 34.967 7.405 33.913 18.477 62.247 33.11 88.619 9.699 17.48 20.67 33.428 32.764 48.494 3.013 3.752 6.283 7.287 9.493 10.891 28.748 32.283 63.389 58.496 105.12 77.958 27.869 12.997 58.533 22.991 94.468 27.858 6.011 0.814 12.146 1.569 18.408 2.064 6.35 0.504 12.794 0.606 19.449 0.92zM668.306 481.234c-0.932 0.703-2.163 0.725-3.241 1.031-17.075 4.869-34.386 9.516-51.517 14.331-0.635 0.178-1.692-0.208-2.547-0.344-10.694-1.691-21.277-3.241-31.721-4.93-1.62-0.262-3.378-0.822-4.862-0.803-1.148 0.016-2.518 0.534-3.822 0.803-3.925 0.81-8.183 1.528-11.925 2.293-5.259 1.075-10.688 1.91-15.744 2.866-2.568 0.485-5.155 1.194-7.756 1.604-2.77 0.437-5.563 0.647-8.337 1.147-2.592 0.467-4.918 1.434-7.293 2.178-4.859 1.522-9.103 3.439-13.314 5.503-2.112 1.036-4.118 2.122-6.135 3.324-0.997 0.595-2.109 0.95-3.126 1.49-1.014 0.54-1.922 1.255-2.895 1.834-2.002 1.192-4.047 2.271-6.020 3.44-3.936 2.332-7.658 4.914-11.577 7.222-3.947 2.326-7.975 4.545-11.809 7.108-0.966 1.291-0.608 4.016-1.39 5.388-0.338 0.596-1.897 1.416-3.125 2.178-34.172 21.219-68.132 42.751-101.878 63.971-4.364 2.744-8.778 5.426-13.198 8.14-1.086 0.667-2.023 1.525-3.126 2.178-0.563 0.333-1.166 0.557-1.737 0.917-0.541 0.342-1.057 0.815-1.621 1.146-0.28 0.164-0.639 0.162-0.927 0.344-0.568 0.36-1.086 0.754-1.621 1.031-0.366 0.191-0.471 0.347-0.81 0.573-1.090 0.731-2.33 1.293-3.473 1.95-0.572 0.328-1.246 0.472-1.852 0.803-0.568 0.31-1.035 0.753-1.621 1.033-3.647 1.743-7.25 3.501-10.998 5.044-5.014 2.065-10.053 4.263-15.166 6.305-4.468 1.784-9.608 2.933-14.008 4.585-0.725 0.272-1.462 0.359-2.2 0.574-5.594 1.626-11.383 2.86-17.25 4.241-5.848 1.378-11.933 2.228-18.060 3.44-3.123 0.618-6.399 0.619-9.609 1.146-2.357 0.388-4.848 0.625-7.177 0.803-0.75 0.057-1.661 0.263-2.316-0.229-1.362 0.236-2.957 0.551-4.63 0.687-1.839 0.151-4.187 0.182-5.673 0.114-8.582-0.395-17.326-0.002-25.585-0.917-2.035-0.226-4.024-0.313-6.021-0.574-5.905-0.772-11.584-1.715-17.25-2.636-3.78-0.614-7.333-1.473-10.882-2.293-1.391-0.321-2.778-0.673-3.82-1.031-0.488-0.168-0.831-0.221-1.389-0.344-1.739-0.382-3.246-1.31-4.978-1.72-1.699-0.403-3.119-1.001-4.746-1.834-1.502-0.77-3.206-1.183-4.746-1.949-1.317-0.654-2.886-1.422-4.399-2.178-3.082-1.54-5.403-3.15-5.788-6.878-0.119-0.307 0.236-0.586 0.347-0.803 1.188-2.306 2.504-3.84 4.053-5.732 0.732-0.894 1.711-1.977 2.663-2.981 0.986-1.041 1.901-2.155 3.010-2.637 1.377-0.597 2.93-0.236 4.746-0.229 1.147 0.004 2.191-0.081 3.241 0 6.532 0.511 12.311 1.668 18.408 2.407 2.181 0.265 4.358 0.182 6.598 0.344 2.107 0.152 4.264 0.477 6.367 0.573 1.126 0.052 2.32-0.091 3.473 0 1.075 0.085 1.961 0.298 3.010 0.229 2.148-0.139 4.245-0.169 6.367-0.114 4.416 0.114 8.81 0.259 13.081 0.344 2.12 0.043 4.283-0.1 6.367-0.114 4.415-0.032 8.474 0.061 12.619-0.803 2.026-0.422 4.094-0.59 6.135-0.803 2.115-0.22 4.347-0.165 6.367-0.573 0.45-0.091 0.812-0.362 1.273-0.459 0.471-0.099 1.019-0.13 1.505-0.229 1.011-0.207 1.983-0.45 3.010-0.574 1.936-0.234 3.865-0.741 5.788-1.146 0.917-0.193 1.749-0.569 2.663-0.803 1.978-0.505 3.846-0.909 5.557-1.376 1.444-0.394 3.010-0.699 4.167-1.031 3.193-0.918 6.234-1.783 9.262-2.866 3.496-1.25 6.777-2.549 10.072-3.783 1.738-0.651 3.463-1.227 5.094-1.95 1.58-0.699 3.080-1.571 4.63-2.293 1.608-0.748 3.299-1.278 4.863-2.064 1.534-0.77 2.97-1.672 4.515-2.407 1.561-0.742 2.846-1.758 4.284-2.637 5.836-3.567 11.722-6.905 17.481-10.318 22.981-13.615 46.103-27.546 69.462-41.386 22.16-13.13 44.939-26.747 67.263-40.125 0.94-0.564 1.717-1.168 2.315-1.261 0.57-0.089 2.34 0.019 2.547 0.114 0.69 0.32 0.26 0.557 0.58 1.147 0.225 0.416 0.555 0.764 0.926 0.803 0.54 0.055 2.389-1.287 3.241-1.834 6.425-4.12 12.389-7.788 18.639-11.808 1.090-0.701 2.122-1.644 3.126-2.064 0.050-0.021 0.234-0.116 0.231-0.114 4.015-0.984 8.185-1.713 12.388-2.637 11.246-2.475 22.643-4.995 33.805-7.451 0.974-0.214 2.077-0.304 2.894-0.917 0.26-0.578-0.191-1.163-0.347-1.72-0.534-1.912-0.686-4.152-0.81-6.305-0.185-3.22 0.365-6.226 0.579-8.598-0.803-0.546-1.871-0.635-2.778-0.803-15.484-2.864-30.933-6.197-46.309-9.057-7.185-4.555-14.539-8.879-21.649-13.299-1.038-0.645-1.99-1.567-3.241-1.835-0.937 0.701-0.152 1.779-1.041 2.407-0.3 0.213-1.325 0.187-1.737 0.116-0.355-0.063-0.725-0.399-0.927-0.459-0.173-0.052-0.411 0.064-0.579 0-1.72-0.665-3.384-1.978-5.209-2.981-5.319-2.923-10.823-5.94-15.861-8.828-21.202-12.152-42.337-23.69-63.21-35.654-14.123-8.096-28.211-15.896-42.14-23.733-5.157-2.901-10.642-5.925-15.861-8.827-1.796-1-3.509-2.254-5.325-2.981-0.495-0.198-0.922-0.33-1.389-0.573-0.867-0.452-1.769-1.149-2.547-1.606-0.461-0.27-0.906-0.418-1.389-0.687-0.853-0.476-1.561-1.246-2.431-1.72-0.46-0.251-1.041-0.35-1.505-0.573-0.456-0.22-0.842-0.564-1.273-0.803-0.867-0.48-1.947-0.692-2.894-1.146-0.469-0.226-0.85-0.558-1.273-0.803-0.952-0.547-1.977-0.774-2.894-1.26-1.315-0.699-2.711-1.596-4.283-1.95-2.588-2.063-6.078-2.341-8.914-3.898-0.353-0.192-0.602-0.407-0.926-0.573-0.354-0.181-0.729-0.293-1.158-0.459-3.861-1.494-7.553-3.33-11.808-4.241-1.686-0.361-3.145-1.331-4.746-1.72-0.452-0.111-0.928-0.021-1.389-0.116-0.388-0.079-0.761-0.348-1.158-0.459-0.901-0.249-1.782-0.293-2.663-0.573-1.644-0.524-3.311-0.898-4.978-1.491-0.853-0.303-1.626-0.387-2.547-0.574-0.847-0.171-1.607-0.6-2.431-0.802-1.755-0.432-3.619-0.66-5.442-1.033-5.473-1.117-11.351-1.467-16.786-2.407-1.927-0.333-3.955-0.291-5.904-0.573-3.972-0.575-7.981-0.735-12.040-0.918-4.077-0.182-8.226 0.305-12.388 0.46-4.142 0.153-8.287 0.279-12.271 0.573-12.196 0.901-22.307 3.245-33.343 5.158-1.89 0.328-3.785 0.631-5.556 0.803-2.414 0.235-4.2-0.049-5.904-0.574-0.64-0.197-1.136-0.49-1.621-0.802-3.375-2.164-6.15-4.448-8.914-7.222-1.447-1.452-2.849-2.825-2.778-5.044 0.033-1.039 0.524-2.52 0.926-3.21 0.476-0.814 1.413-1.462 2.316-1.95 0.939-0.506 2.040-0.677 3.010-1.146 0.965-0.466 1.84-1.044 2.779-1.491 1.925-0.916 3.853-1.891 5.788-2.751 1.98-0.881 3.929-1.805 5.904-2.637 2.070-0.871 4.294-1.345 6.483-2.063 4.335-1.421 8.884-2.375 13.66-3.324 9.379-1.863 19.74-3.222 30.1-4.014 7.845-0.597 15.84-0.837 24.081-1.031 2.622-0.063 5.209 0.19 7.756 0.343 2.525 0.153 5.043 0.418 7.525 0.803 1.162 0.18 2.399 0.258 3.588 0.459 2.509 0.423 4.953 0.512 7.525 0.917 1.249 0.197 2.492 0.154 3.705 0.344 2.611 0.409 5.146 0.651 7.756 0.802 3.689 0.215 7.479 1.471 10.767 2.064 1.338 0.241 2.316 0.68 3.357 0.917 0.628 0.142 1.191 0.173 1.737 0.343 0.522 0.165 0.955 0.387 1.505 0.574 1.334 0.45 2.956 0.805 4.167 1.146 0.299 0.084 0.42 0.26 0.695 0.344 0.944 0.286 1.894 0.476 2.547 0.687 0.875 0.283 1.766 0.275 2.779 0.459 1.065 0.192 2.137 0.722 3.241 1.033 3.417 0.957 6.769 1.969 9.724 3.096 2.042 0.777 4.125 1.474 6.135 2.293 1.996 0.811 3.909 1.832 5.904 2.637s3.931 1.795 5.904 2.637c2.008 0.856 4.024 1.677 5.904 2.637 0.456 0.232 0.838 0.58 1.273 0.802 0.516 0.264 1.072 0.337 1.621 0.574 0.972 0.417 1.85 1.039 2.779 1.49 1.912 0.929 3.676 2.040 5.556 2.981 3.778 1.893 7.486 3.902 11.115 5.961 4.718 3.117 9.589 5.951 14.47 8.828 4.851 2.858 9.608 5.945 14.472 8.828 27.993 16.586 56.007 33.588 83.7 50.329 0.583 0.352 1.21 0.78 1.852 1.031 0.667 0.263 1.573 0.235 1.968 1.033 0.175 1.129 0.193 2.485 0.116 3.554 5.009 2.931 9.952 5.977 14.934 8.942 3.745 2.228 7.587 4.397 11.23 6.65 1.204 0.746 2.267 1.676 3.473 2.523 3.325 2.338 7.762 4.423 11.461 6.42 1.389 0.749 2.806 1.163 4.283 1.72 2.751 1.038 5.523 2.322 8.683 3.21 2.298 0.645 4.977 1.092 7.41 1.604 0.844 0.178 1.671 0.529 2.43 0.574 1.117 0.066 2.247-0.167 3.241-0.229 1.084-0.068 1.902 0.054 3.012 0.229 14.248 2.254 27.722 4.21 42.14 6.65 0.783 0.131 1.759-0.431 2.547-0.574 8.935-1.615 17.544-3.051 26.164-4.585 3.235-0.577 6.505-1.263 9.609-1.606 0.146-0.016 0.317-0.009 0.463 0 0.995 0.062 2.299 0.51 3.473 0.803 12.608 3.145 25.508 6.196 37.741 9.401 2.019 0.53 3.938 1.784 5.788 2.753 1.438 0.752 2.853 1.565 4.168 2.293 0.431 0.238 1.219 0.311 1.157 1.033-0.219 0.605-0.907 0.462-1.389 0.573-0.527 0.12-1.117 0.251-1.621 0.344-15.43 2.855-31.275 5.667-46.54 8.484-0.994 0.182-2.161 0.276-3.010 0.917 0.204 3.040 0.071 6.343-0.231 9.974-0.097 1.171-0.591 2.57-0.347 3.21 0.422 1.106 1.798 0.909 3.473 1.146 16.577 2.354 33.12 4.787 49.435 7.222 1.158 0.174 2.324 0.266 3.357 0.688-0.237 0.489-0.337 1.117-0.46 1.721z" />
<glyph unicode="&#xe903;" horiz-adv-x="724" d="M0.421 693.762c241.215 0 482.405 0 723.625 0 0-168.656 0-337.332 0-505.985-0.28 0-0.562 0-0.842 0-241.084 0-482.114 0-723.204 0 0 168.251 0 336.483 0 504.736-0.036 0.591-0.069 1.179 0.421 1.249zM533.773 630.045c-11.387 0-23.092-0.414-33.255-0.833-3.066-4.045-3.966-10.236-6.736-14.576-23.152-0.276-47.425 0.555-69.878-0.416-3.445-4.643-4.326-11.823-7.997-16.241-18.926-0.421-39.934-0.956-59.355-1.249-5.928-0.089-15.645 1.117-19.786-0.833-3.574-1.682-5.815-8.802-7.998-13.743-7.004-15.851-12.983-31.208-20.205-45.393-3.213-0.152-4.656 3.117-8.84 3.749-9.261 1.398-22.628-1.394-31.993 0.417-0.105 5.353 2.877 9.412 4.63 13.326 3.908 8.721 6.932 16.233 10.946 25.404 1.657 3.786 5.291 9.875 4.63 12.91-1.407 6.462-9.656 5.414-18.522 5.414-12.158 0-20.534 0-31.993 0-5.574 0-12.599 0.753-15.576-0.416-3.812-1.496-5.126-7.645-7.576-13.327-6.831-15.833-12.976-29.732-19.786-44.144-2.531 0.272-6.167-0.549-7.998 0.416 0.145 5.229 2.836 9.279 4.63 13.327 3.876 8.745 6.937 16.424 10.944 25.82 1.238 2.902 5.741 9.946 5.473 12.91-0.443 4.891-6.557 5.99-11.366 5.83-5.549-0.184-12.564-0.201-15.996-1.666-3.632-1.551-5.219-6.703-7.157-11.244-1.987-4.658-4.302-9.273-5.893-12.91-26.098-59.633-51.046-118.579-77.035-176.574-0.832-1.856-1.366-5.745-4.63-4.997-1.606 0.747-0.809 2.997-0.842 4.165-0.524 18.749 0 36.954 0 55.387 0 6.671-1.13 14.407 0 20.406 0.381 2.018 2.195 5.281 3.368 7.912 7.18 16.123 14.12 31.92 21.048 47.475 1.272 2.858 2.986 6.030 3.368 8.329 0.988 5.945 0 13.259 0 19.573 0 6.735-0.549 12.749-0.421 19.157 0.103 5.185 0.755 12.161 0.421 19.157-0.421 8.812 1.449 24.039-7.156 23.738-3.65-0.128-6.436-6.251-8.419-10.828-29.47-67.984-58.951-135.816-88.401-202.394 0.765-21.585 0.421-46.312 0.421-69.13 0-7.354-1.277-18.552 4.63-18.74 3.96-0.126 6.775 7.71 8.419 11.244 5.904 12.691 10.018 23.19 15.154 34.982 0.842 1.934 1.141 6.152 4.63 5.414 1.559-0.168 0.804-2.206 0.842-2.914 0.804-15.096-0.518-30.589 0-45.393 0.362-10.37-0.875-19.085 7.156-20.406 5.717 1.783 6.968 7.833 9.261 12.91 2.33 5.16 4.162 10.813 7.156 14.992 2.182-0.202 4.588-0.181 6.314-0.834-0.664-6.377-3.709-11.12-5.893-16.241-2.391-5.605-1.575-10.114 5.051-11.244 3.346-0.572 7.696 0.254 11.786 0.416 5.091 0.202 10.204-0.872 13.891 0.417 4.284 1.496 6.664 9.52 9.261 15.408 16.786 38.055 32.783 75.18 48.831 112.026 2.388 5.483 5.121 9.379 3.368 15.408 6.283 0 12.749 0 19.364 0 6.482 0 13.991-1.327 18.522 0.833 1.857 0.887 3.611 3.844 5.051 7.080 8.74 19.626 17.803 42.238 26.1 59.552 3.37-0.275 7.854 0.551 10.524-0.417 0.026-5.066-3.165-9.384-5.051-13.743-28.683-66.271-56.856-131.407-85.875-196.979 16.988-0.174 39.014 0.187 55.987 0 0.806-7.129-4.695-8.328-3.789-13.743 1.202-7.187 12.037-5.831 21.468-5.831 7.471 0 21.382-1.846 26.941 0.833 3.441 1.658 4.217 5.807 5.473 8.745 1.697 3.97 2.030 5.875 4.63 9.578 19.573 0.23 37.414-0.129 56.408-0.417 6.319-0.095 14.368-1.187 18.522 0.834 4.322 2.102 8.954 16.563 11.365 22.071 9.038 20.652 16.509 38.086 25.258 58.303 3.162 7.306 7.97 14.585 0 17.908-6.766 2.819-21.074-1.607-27.783 0.833 0.167 4.322 2.549 8.284 4.21 12.078 11.874 27.131 23.211 53.768 35.361 80.375 10.206 0.781 22.395-1.042 31.993 0 2.771 0.302 5.163 2.137 7.576 0.833-0.407-5.268-3.367-9.741-5.472-14.575-4.086-9.381-7.708-18.355-12.207-28.318-1.346-2.982-6.254-11.791-5.894-14.576 0.991-7.677 13.601-5.197 21.468-6.247-0.575-5.718-3.28-11.106-5.472-16.241-13.013-30.504-27.303-60.476-40.412-91.203-2.039-4.778-6.246-12.53-5.472-15.825 0.974-4.151 5.184-5.292 10.524-5.83-1.829-2.772-2.253-6.934-4.632-9.161-7.156 0.285-15.16 1.351-21.047-0.417-1.372-2.968-3.611-8.017-2.104-11.244 4.436-1.226 9.177-1.033 13.891-1.249 5.084-0.234 10.313 0 15.575 0 30.641 0 62.331-1.503 91.768-0.833 4.842 6.591 6.702 16.137 10.946 23.322 2.965 0.296 5.687-0.39 8.84 0 1.703 0.21 3.297 1.193 5.051 1.248 1.816 0.057 4.050-0.718 5.893-0.833 19.982-1.249 45.434 0 66.091 0 7.838 0 15.569-0.786 22.311 0 1.997 0.232 3.908 1.25 5.894 1.249 2.155-0.002 4.207-1.039 6.314-1.249 9.195-0.921 19.538 0 29.468 0 19.677 0 39.483-0.417 58.934-0.416 9.392 0 18.753-1.090 27.362 0.833 0.555 92.48-0.005 188.115 0 281.103 0 6.178 0.656 12.359-0.842 18.324-3.796 1.457-7.967 0.833-12.208 0.833-4.133 0-8.743 0.134-13.050 0-8.15-0.253-16.83 0.888-25.258 0-1.951-0.204-3.942-1.141-5.893-1.249-7.418-0.41-16.896 0.416-26.1 0.416-7.455 0-20.654 1.634-26.52-0.416-5.512-1.925-7.349-11.391-9.683-16.241-0.859-1.786-1.366-4.905-5.050-3.749-1.669 6.9 4.587 9.133 3.788 14.992-0.955 7.016-14.649 7.033-24.836 5.83-1.921-0.226-3.927-1.275-5.894-1.249-1.955 0.026-3.975 1.124-6.314 1.249-2.928 0.157-6.878-0.416-10.524-0.416-9.064 0-12.725 0.066-15.576-4.581-1.171-1.91-0.695-5.651-4.21-4.998-1.473-0.105-0.787 1.71-0.842 2.082-0.724 5.005-2.929 7.657-7.576 8.329-1.672 0.242-3.948-1.093-5.472 0.417 0.701 3.385 5.336 2.498 9.682 2.498 4.443 0 9.683 0 13.471 0 2.493 2.345 5.503 6.091 5.051 9.994-0.84 1.945-4.547 1.055-6.314 2.082 1.634 4.688 5.684 9.014 4.63 14.992-2.316 2.026-5.975 1.244-9.259 1.244z" />
<glyph unicode="&#xe904;" horiz-adv-x="724" d="M543.034 628.796c1.053-5.979-2.997-10.305-4.63-14.992 1.767-1.028 5.473-0.137 6.314-2.082 0.451-3.903-2.559-7.651-5.051-9.994-3.788 0-9.027 0-13.471 0-4.346 0-8.981 0.887-9.682-2.498 1.524-1.511 3.8-0.175 5.472-0.417 4.648-0.673 6.854-3.323 7.576-8.329 0.055-0.372-0.631-2.187 0.842-2.082 3.515-0.653 3.038 3.088 4.21 4.998 2.851 4.646 6.512 4.581 15.576 4.581 3.645 0 7.596 0.574 10.524 0.416 2.34-0.125 4.359-1.222 6.314-1.249 1.967-0.026 3.974 1.023 5.894 1.249 10.187 1.203 23.881 1.185 24.836-5.83 0.798-5.858-5.456-8.092-3.788-14.992 3.684-1.157 4.191 1.962 5.050 3.749 2.334 4.851 4.171 14.316 9.683 16.241 5.865 2.049 19.066 0.416 26.52 0.416 9.204 0 18.681-0.827 26.1-0.416 1.951 0.107 3.942 1.044 5.893 1.249 8.428 0.888 17.106-0.253 25.258 0 4.307 0.134 8.916 0 13.050 0 4.241 0 8.412 0.624 12.208-0.833 1.497-5.965 0.842-12.146 0.842-18.324-0.005-92.988 0.555-188.623 0-281.103-8.609-1.923-17.97-0.833-27.362-0.833-19.451-0.001-39.256 0.416-58.934 0.416-9.929 0-20.272-0.921-29.468 0-2.107 0.212-4.159 1.247-6.314 1.249-1.986 0.001-3.897-1.017-5.894-1.249-6.742-0.786-14.472 0-22.311 0-20.655 0-46.109-1.249-66.091 0-1.843 0.116-4.077 0.889-5.893 0.833-1.754-0.055-3.349-1.039-5.051-1.248-3.153-0.39-5.875 0.296-8.84 0-4.244-7.185-6.103-16.73-10.946-23.322-29.437-0.671-61.127 0.833-91.768 0.833-5.261 0-10.491-0.234-15.575 0-4.714 0.218-9.456 0.024-13.891 1.249-1.507 3.227 0.732 8.276 2.104 11.244 5.887 1.769 13.891 0.702 21.047 0.417 2.379 2.227 2.802 6.389 4.632 9.161-5.341 0.538-9.55 1.679-10.524 5.83-0.774 3.295 3.434 11.048 5.472 15.825 13.108 30.728 27.397 60.699 40.412 91.203 2.192 5.135 4.897 10.522 5.472 16.241-7.868 1.048-20.477-1.43-21.468 6.247-0.36 2.785 4.547 11.594 5.894 14.576 4.499 9.963 8.121 18.937 12.207 28.318 2.105 4.834 5.065 9.307 5.472 14.575-2.413 1.305-4.806-0.532-7.576-0.833-9.598-1.042-21.787 0.781-31.993 0-12.149-26.607-23.487-53.244-35.361-80.375-1.66-3.794-4.043-7.756-4.21-12.078 6.71-2.44 21.018 1.987 27.783-0.833 7.97-3.322 3.162-10.601 0-17.908-8.749-20.215-16.22-37.651-25.258-58.303-2.411-5.509-7.044-19.971-11.365-22.071-4.154-2.020-12.203-0.929-18.522-0.834-18.994 0.287-36.835 0.647-56.408 0.417-2.6-3.704-2.935-5.608-4.63-9.578-1.255-2.939-2.032-7.087-5.473-8.745-5.56-2.678-19.471-0.833-26.941-0.833-9.431 0-20.266-1.356-21.468 5.831-0.906 5.415 4.594 6.614 3.789 13.743-16.972 0.187-38.999-0.174-55.987 0 29.019 65.573 57.192 130.708 85.875 196.979 1.886 4.358 5.076 8.677 5.051 13.743-2.67 0.968-7.153 0.142-10.524 0.417-8.295-17.314-17.359-39.925-26.1-59.552-1.441-3.237-3.194-6.193-5.051-7.080-4.531-2.159-12.040-0.833-18.522-0.833-6.614 0-13.080 0-19.364 0 1.753-6.029-0.979-9.925-3.368-15.408-16.048-36.846-32.045-73.97-48.831-112.026-2.597-5.888-4.976-13.912-9.261-15.408-3.688-1.289-8.801-0.215-13.891-0.417-4.092-0.162-8.44-0.988-11.786-0.416-6.628 1.13-7.443 5.639-5.051 11.244 2.184 5.122 5.229 9.863 5.893 16.241-1.726 0.652-4.132 0.632-6.314 0.834-2.993-4.18-4.825-9.833-7.156-14.992-2.293-5.077-3.546-11.127-9.261-12.91-8.030 1.321-6.793 10.036-7.156 20.406-0.518 14.804 0.804 30.297 0 45.393-0.038 0.708 0.718 2.748-0.842 2.914-3.491 0.737-3.789-3.48-4.63-5.414-5.136-11.791-9.25-22.291-15.154-34.982-1.644-3.533-4.459-11.37-8.419-11.244-5.908 0.187-4.63 11.386-4.63 18.74 0 22.818 0.344 47.546-0.421 69.13 29.451 66.578 58.931 134.411 88.401 202.394 1.984 4.577 4.769 10.7 8.419 10.828 8.605 0.302 6.736-14.925 7.156-23.738 0.334-6.995-0.317-13.971-0.421-19.157-0.128-6.408 0.421-12.422 0.421-19.157 0-6.314 0.988-13.628 0-19.573-0.381-2.299-2.094-5.471-3.368-8.329-6.927-15.555-13.868-31.352-21.048-47.475-1.171-2.632-2.987-5.894-3.368-7.912-1.13-5.999 0-13.735 0-20.406 0-18.433-0.524-36.638 0-55.387 0.033-1.168-0.764-3.418 0.842-4.165 3.265-0.747 3.799 3.141 4.63 4.997 25.989 57.995 50.937 116.941 77.035 176.574 1.592 3.637 3.906 8.253 5.893 12.91 1.938 4.54 3.524 9.693 7.157 11.244 3.431 1.466 10.448 1.483 15.996 1.666 4.809 0.159 10.924-0.939 11.366-5.83 0.268-2.964-4.234-10.008-5.473-12.91-4.008-9.396-7.068-17.075-10.944-25.82-1.794-4.048-4.486-8.098-4.63-13.327 1.831-0.965 5.467-0.144 7.998-0.416 6.81 14.412 12.954 28.311 19.786 44.144 2.451 5.683 3.766 11.831 7.576 13.327 2.978 1.169 10.002 0.416 15.576 0.416 11.458 0 19.834 0 31.993 0 8.866 0 17.115 1.048 18.522-5.414 0.66-3.035-2.973-9.122-4.63-12.91-4.014-9.171-7.038-16.682-10.946-25.404-1.754-3.914-4.735-7.973-4.63-13.326 9.364-1.811 22.732 0.98 31.993-0.417 4.184-0.631 5.627-3.901 8.84-3.749 7.222 14.186 13.202 29.542 20.205 45.393 2.182 4.941 4.425 12.061 7.998 13.743 4.14 1.95 13.857 0.743 19.786 0.833 19.421 0.293 40.43 0.83 59.355 1.249 3.672 4.419 4.553 11.599 7.997 16.241 22.453 0.971 46.726 0.14 69.878 0.416 2.77 4.34 3.67 10.531 6.736 14.576 10.162 0.418 21.868 0.833 33.255 0.833 3.282 0.005 6.94 0.787 9.259-1.244zM516.094 610.471c1.039 2.305 1.585 5.095 3.368 6.664 1.413-0.128 3.649 0.556 3.368-1.249-0.315-0.928-3.865 1.377-3.368-1.249-1.595-0.946 2.583 0.383 1.683-1.249-0.702-0.971-3.623 0.254-3.368-1.666 4.162-0.742 8.029-1.775 13.471-1.249 1.717 4.825 3.876 9.215 5.894 13.743-11.085 0-22.171 0-33.256 0-0.972-3.47-3.434-7.46-4.63-10.412-0.389-0.958-1.535-2.849-0.422-3.331 1.676 2.508 2.057 6.294 4.21 8.329 0.903-2.919-2.36-5.099-2.525-8.329 2.912 1.423 2.238 6.393 5.051 7.912 1.075-0.741-0.28-3.885 0.84-4.581 0.629 1.599 0.612 3.837 2.526 4.165-0.476-3.001-1.912-5.049-2.947-7.496 2.729 1.325 2.194 5.881 4.63 7.496 1.191-0.072 2.889 0.358 2.947-0.833-0.236-1.845-3.564-5.971-2.104-6.664 2.062 1.624 1.99 7.399 4.632 7.080-0.652-2.271-1.874-3.976-2.526-6.247 2.946 0.695 1.478 5.757 4.632 6.247-0.051-2.734-2.829-4.966-2.105-7.080zM508.094 610.471c2.189-0.36 1.754 1.874 2.525 2.915 0.131 0.837 2.292 3.186 0.422 3.331-1.162-1.905-1.939-4.19-2.947-6.247zM502.622 610.471c0.702 0 1.402 0 2.104 0-0.264 1.266 0.539 3.587-0.422 4.165-0.279-1.665-1.042-2.853-1.682-4.165zM426.43 607.973c-1.666-2.592-3.077-6.721-4.21-9.578-0.269-0.675-2.088-2.277-0.422-2.498 3.116 2.472 3.206 7.934 5.894 10.828 34.474 1.989 70.984-1.383 105.239 0.416 1.438 0.075 4.171-0.833 5.050 1.249-1.424 1.567-4.035 0.804-5.893 0.833-34.975 0.552-70.399-0.415-104.819 0-0.527-0.17-0.859-0.536-0.839-1.249zM82.086 554.667c-20.455-46.962-41.296-93.916-61.881-141.176-1.977-4.539-4.785-9.561-5.472-13.326-1.837-10.060 1.059-25.951 0.421-36.23 13.073 30.424 26.389 61.266 39.991 91.619 1.934 4.315 4.847 9.527 5.472 13.327 0.518 3.149-0.622 7.463 0 10.828 0.336 1.818 1.969 4.083 2.947 6.247 12.709 28.142 23.64 55.475 36.202 83.291 2.003 4.435 4.852 9.138 5.473 12.91 1.467 8.907-0.76 17.171-0.421 25.404-7.402-17.436-14.957-35.039-22.733-52.892zM509.779 596.312c2.43 0.079 2.249 2.986 2.946 4.582 0.777 1.775 1.95 3.392 2.526 4.997-3.611-1.424-3.569-6.463-5.472-9.578zM429.797 597.978c7.851-0.76 19.174 2.053 26.52 0.416 2.738-0.609 6.15-3.87 6.314-6.663 0.145-2.448-1.916-5.597-2.947-7.912-1.112-2.497-3.083-4.757-2.525-8.745 3.964-0.789 5.466 3.087 9.261 3.747 6.201 1.080 12.991-0.791 20.205 0 4.435 5.764 3.851 16.767 11.365 19.157 2.625 0.836 7.505-0.926 7.998 3.331-25.226-0.247-49.218 0.729-74.51 0.416-0.95-0.862-1.312-2.309-1.682-3.747zM665.112 591.731c0.28-23.043-0.561-47.198 0.422-69.547 5.844 13.93 11.674 27.874 18.101 41.228-0.072 8.020-0.124 19.528 0.421 28.318-5.477 0.806-12.387-0.494-18.944 0.001zM143.967 462.632c13.972 31.625 28.361 64.794 42.517 97.45 3.2 7.382 9.245 19.122 12.629 28.318 0.787 2.139 2.114 3.813-0.842 3.331-4.027-0.657-9.985-0.769-15.575-0.833-38.175-85.503-75.443-171.905-112.818-258.198 5.753 0 11.505 0 17.258 0 19.255 42.206 37.691 86.614 56.83 129.932zM339.291 589.649c-13.472-30.955-27.105-61.751-40.412-92.869 13.355 0.026 26.755 0.094 39.149-0.833-27.717-63.921-55.437-127.839-83.349-191.567 25.653 0.252 50.062-0.726 75.773-0.416 12.051 28.889 24.993 56.898 37.045 85.788-12.352 0.141-25.881-0.771-37.045-0.417 7.679 17.883 15.356 35.823 23.152 53.722 7.805 17.921 15.456 35.966 23.994 53.306 12.673 0.321 24.059-0.631 36.623-0.416 13.37 32.305 27.961 63.403 41.254 95.783-38.512-0.906-77.552-1.292-116.184-2.081zM499.256 591.315c-2.773-6.696-5.158-13.776-8.841-19.573-8.279 0-16.556 0-24.836 0-10.351-25.574-21.9-49.965-32.413-75.377 8.279 0 16.558 0 24.837 0-27.562-64.074-55.91-127.372-83.35-191.567 7.578 0 15.155 0 22.732 0 11.803 28.531 25.225 56.835 37.044 84.538 4.055 9.504 7.502 19.344 12.629 28.319 3.087 0 6.174 0 9.261 0 1.362 0.844 1.177 1.582 2.947 2.081 2.979 0.842 8.090-0.63 11.366 0 2.215 6.414 5.46 11.812 7.576 18.324-4.289 0.126-9.588-0.189-12.629 0 3.735 9.638 8.642 19.524 12.629 28.735 1.381 3.189 2.785 6.359 3.368 9.578-2.39-0.967-6.591-0.142-9.682-0.416 16.446 38.839 33.577 77.002 50.094 115.773-7.411-0.304-14.861-0.57-22.732-0.417zM571.659 591.315c-2.772-6.696-5.158-13.776-8.84-19.573-2.992 0.232-6.955-0.494-9.261 0.416 2.872 6.321 5.477 12.905 8.419 19.157-7.052-0.102-13.638-0.667-21.048-0.416-2.677-6.513-5.377-13.005-8.419-19.157-1.904 0.893-5.414 0.197-7.997 0.416-5.813-14.101-11.976-27.855-18.102-41.645 2.531-0.272 6.167 0.549 7.998-0.416-0.532-1.834-1.295-3.437-2.104-4.997 6.876 0 13.752 0 20.627 0 1.001 1.784 1.203 4.362 2.946 5.414 3.509 0 7.017 0 10.524 0-0.674-1.831-1.798-3.218-2.104-5.414 6.034 0 12.068 0 18.102 0 0.632 2.012 1.193 4.093 2.525 5.414 8.959 0.119 17.628-0.051 26.1-0.416-0.901 13.129-0.199 27.845-0.422 41.645-2.806 0-5.612 0-8.419 0 1.977 4.727 4.77 10.364 6.736 14.992 0.685 1.61 2.379 4.391 0.842 4.997-5.24-0.926-12.172-0.175-18.101-0.417zM689.107 590.482c-0.28-32.9 0.561-66.908-0.422-99.115-7.444-0.963-16.907 0.069-23.994-1.249 0-8.468 0-16.936 0-25.403 15.964-0.033 31.291-0.695 47.567-0.417 0 42.478 0 84.956 0 127.434-7.576 0-15.155 0-22.732 0-0.49-0.072-0.457-0.659-0.42-1.25zM199.113 533.429c-5.225 0.31-9.324-0.494-14.312-0.416-12.010-28.377-24.63-56.149-36.623-84.54 15.295 0 30.589 0 45.884 0 9.929 22.522 19.154 45.739 29.888 67.465 8.138 0 16.277 0 24.415 0 11.002 25.069 21.733 50.406 32.836 75.377-18.803 0-37.606 0-56.408 0-9.148-18.714-17.004-38.707-25.68-57.887zM610.387 590.9c-5.309-12.239-10.609-24.487-15.996-36.647 6.062-0.305 11.027 0.473 16.839 0.416-0.564-13.612 0.962-27.358 0-39.979-3.087 0-6.174 0-9.261 0-0.219-13.821 0.243-26.967 0.422-40.395 3.294-0.212 6.841-0.174 9.682-0.833-0.894-3.007-3.758-6.271-3.368-9.162 3.782 1.238 8.112-0.577 12.629 0 1.61 2.71 2.138 6.49 4.21 8.745 4.93-0.259 10.92 0.53 15.154-0.417-1.024-2.874-2.554-5.247-3.368-8.329 4.35 0 8.699 0 13.050 0 1.488 2.971 2.52 6.39 4.21 9.162 1.793-0.246 2.784 0.299 4.21 0.416 0.107 13.71-0.029 27.178-0.421 40.395-3.227 0-6.455 0-9.682 0-0.038 13.781-0.051 27.536 0.84 40.395 2.947 0 5.894 0 8.841 0-0.111 10.834 0.445 24.812 0 36.647-15.836-0.296-31.697-0.569-47.991-0.414zM61.46 479.291c2.237-10.871-2.205-16.618-5.473-24.154-12.172-28.080-23.329-54.001-35.361-81.624-2.009-4.613-5.265-9.644-5.893-13.742-0.791-5.156 0.421-10.305 0.421-15.409 0-5.072-0.353-10.157 0.421-15.408 28.239 64.606 55.688 128.033 83.771 192.816 2.015 4.649 5.216 9.021 5.893 12.91 1.056 6.056 0 14.253 0 21.655 0 7.862 0.324 17.408-0.421 22.071-14.188-33.299-28.411-66.566-43.358-99.115zM669.742 521.768c-1.519-3.51-4.048-6.962-4.63-10.412-0.85-5.042 0.263-9.846 0.422-15.408 5.512 0.653 11.678 0.663 17.679 0.833-0.171 18.376 0.405 39.433-0.421 55.804-4.356-10.334-8.635-20.619-13.050-30.818zM597.758 547.172c0-6.247 0-12.494 0-18.741-0.776-3.536-5.487-3.178-4.63-8.329 2.81-0.614 8.155-0.732 10.944 0 0.969 8.332 0.304 18.613 0 27.069-2.104 0.001-4.208 0.001-6.314 0.001zM157.859 304.382c13.452 0.851 28.396 0.226 42.516 0.417 32.915 76.403 66.634 152.023 99.346 228.63-14.033 0-28.064 0-42.095 0-33.328-76.279-66.737-152.476-99.767-229.047zM467.684 439.312c41.233-0.158 82.388-0.395 123.34-0.833 0 25.125 0 50.251 0 75.377-29.88 0.424-60.244 0.371-90.085 0.833-11.858-24.363-22.345-50.080-33.255-75.377zM265.624 438.062c-2.717-6.131-5.934-12.297-7.157-19.157 13.050 0 26.1 0 39.149 0 8.382 20.769 17.842 40.75 26.52 60.802 1.367 3.158 2.879 6.414 2.526 9.994-10.626 0.69-25.888-1.778-32.413 2.082-0.634 0.375-0.628 1.553-0.842 1.666-0.488 0.254-2.984-0.192-3.368 0-8.413-18.405-16.413-37.33-24.416-55.388zM430.218 490.534c-0.601 0.668-1.034-0.456-1.263-0.833-2.401-3.935-3.912-9.212-5.894-13.743-6.214-14.2-12.569-28.311-18.101-42.061 8.279 0 16.558 0 24.837 0 7.582 19.151 16.421 37.060 23.995 56.22-7.783 0.215-15.377 0.615-23.575 0.417zM49.252 403.080c0.647-31.703-0.018-64.707 0.842-96.199 9.042 21.456 18.301 42.697 27.783 63.716-1.258 31.378 0.416 65.655-0.842 97.032-8.822-21.951-18.674-42.883-27.783-64.55zM621.333 457.218c-1.153-0.941 0.276-4.437-0.842-5.414-6.314 0-12.629 0-18.943 0 0-18.601 0-37.203 0-55.804 7.437 0 14.874 0 22.311 0 1.762 4.086 3.218 8.476 5.472 12.078 11.927 0 23.854 0 35.781 0 1.253 2.229 1.832 5.128 3.368 7.079 10.665 0 21.328 0 31.994 0 1.829 3.947 4.067 9.248 5.893 12.91 0.572 1.145 0.478 4.083 2.526 3.33-3.549-8.287-6.894-16.779-10.946-24.569-22.73 0-45.463 0-68.194 0-7.766-19.226-17.212-38.611-25.258-57.471-1.216-2.851-2.948-6.17-3.369-8.744-1.861-11.409 1.368-22.425 0-35.4 37.899-0.118 73.219-0.265 110.711-0.833 0 26.93 0 53.861 0 80.791-6.046 0.266-13.173-0.538-18.522 0.417 1.314 3.698 2.687 7.336 4.63 10.412 4.772 0 9.542 0 14.314 0-0.209 19.086 0.746 37.021 0.421 56.22-4.91 0-9.822 0-14.733 0-0.44 1.508 0.955 4.831-0.842 4.998-25.26 0-50.516 0-75.774 0zM133.443 434.73c-15.521-34.063-29.995-69.162-45.463-103.279-1.543 0-3.087 0-4.63 0-3.448-9.22-7.716-17.629-11.365-26.652 8.304-0.303 15.306 0.682 23.573 0.416 18.693 43.419 37.909 86.323 56.408 129.932-6.174-0.139-12.991 0.359-18.522-0.417zM507.253 418.073c-15.296 0.969-32.411 0.141-48.41 0.417-5.262-12.286-10.565-24.531-15.996-36.647 15.996 0 31.993 0 47.99 0 2.051 5.020 4.595 10.188 6.735 14.991 0.651 1.462 0.673 4.283 2.947 4.582-13.81-32.426-28.329-64.147-42.095-96.616 11.085 0 22.171 0 33.255 0 18.551 42.589 37.354 84.926 55.567 127.849-11.084 0-22.171 0-33.255 0-2.594-4.514-4.27-9.937-6.737-14.575zM483.259 431.816c-1.282-1.371-1.891-3.404-1.685-6.247 7.297 0 14.593 0 21.89 0 0.641 1.863 1.698 3.318 1.263 6.247-7.156 0-14.312 0-21.468 0zM553.138 425.569c13.704-0.186 28.215 0.428 41.254-0.417 0 2.082 0 4.165 0 6.247-13.652-0.317-26.007 0.646-39.57 0.417-1.316-1.337-1.967-3.33-1.683-6.247zM527.038 382.257c21.328 0 42.657 0 63.985 0-0.279 11.942 0.556 24.983-0.422 36.231-15.856 0-31.712 0-47.567 0-5.774-11.639-10.815-24.005-15.996-36.231zM206.69 285.225c12.769 0 25.539 0 38.308 0 18.405 42.178 36.831 84.334 55.145 126.601-12.77 0-25.539 0-38.308 0-18.505-42.078-37.054-84.113-55.145-126.601zM601.547 385.173c0.276-13.46-0.405-28.195 0-40.395 5.506 13.709 11.841 26.598 17.258 40.395-5.752 0-11.505 0-17.258 0zM436.112 376.011c-10.935-22.915-20.571-47.114-31.151-70.379 13.478-0.27 28.053 0.545 40.833-0.417 4.724-4.722-1.221-11.574-2.525-16.657 6.735 0 13.469 0 20.205 0 0.87 3.304 2.628 5.729 3.368 9.162-6.28 0.173-13.314-0.401-18.101 1.248 9.501 22.179 18.815 43.826 28.204 65.383 1.427 3.278 3.808 6.535 3.368 10.412-14.625 0.524-31.557-1.233-44.201 1.249zM535.037 343.945c19.997-0.073 39.117 0.726 59.355 0.416 0 10.272 0 20.546 0 30.818-19.926 0-39.851 0-59.777 0 0.39-8.498 0.551-20.832 0.422-31.234zM500.096 305.215c30.309 0 60.619 0 90.928 0 0.040 10.926 0.214 21.721 0.842 32.067-21.189 0.279-43.5-0.555-63.985 0.417-0.57 10.697 1.271 21.229 0 31.234-9.181-21.319-18.449-42.551-27.784-63.718zM383.913 300.634c-0.023-0.533-0.539-0.578-0.421-1.249-2.125-3.531-3.917-8.678-5.472-12.493-0.415-1.014-2.479-2.862-0.842-3.749 2.053 1.878 3.304 5.685 4.63 8.745 0.663 1.529 1.495 3.123 2.104 4.582 0.573 1.365 1.975 4.086 0.842 4.165-0.28-0.001-0.561-0.001-0.842-0.001zM475.26 300.634c-3.711-5.492-5.479-12.903-8.84-18.74-34.166-1.288-71.439 1.715-105.24 0-1.749-0.089-4.776 0.934-5.472-1.666 37.034 0.567 74.791 0.416 112.396 0.417 2.116 4.891 4.315 10.722 6.314 15.408 0.538 1.261 3.051 3.979 1.263 4.582-0.139-0.001-0.28-0.001-0.42-0.001zM405.382 299.385c-2.051-5.607-4.936-10.387-6.736-16.243 4.244 0.42 2.924 8.441 6.314 8.329-0.433-1.281-1.044-2.993-1.683-4.581-0.456-1.131-2.503-3.176-0.842-3.749 1.571 2.61 2.039 6.313 4.21 8.329 1.118-0.975-0.311-4.472 0.842-5.413 0.895 1.89 1.029 4.534 2.946 5.413-0.208-3.542-2.194-5.325-2.946-8.329 2.323 1.727 2.451 5.628 4.21 7.913 0.842 0.53 4.412 0.974 4.63-0.417-1.186-2.436-2.302-4.942-3.368-7.496 2.935 1.304 2.367 8.149 5.472 7.913-0.236-1.846-3.565-5.971-2.104-6.664 2.609 1.029 1.946 5.295 4.21 6.664 0.811-2.698-1.958-5.216-2.525-7.913 2.587 1.604 2.094 6.258 4.63 7.913 1.488-0.195 4.055 0.681 3.789-1.249-1.959 0.133-3.784 0.134-4.21-1.249-0.65-1.751 2.177-0.066 2.104-1.249-0.918-1.312-3.917-0.568-3.789-2.914 2.451 0.879 4.061-1.233 4.63-0.833 0.092 2.167 1.422 4.959 2.526 7.496 1.112 2.553 2.092 5.776 4.21 7.079 0.316-2.132-2.158-3.676-1.263-4.997 1.516 1.693 2.896 3.521 5.472 4.165-1.284-2.756-4.088-4.007-6.314-5.831-0.22-2.779 2.891-6.020 1.263-7.495-1.573 1.22-1.176 4.388-2.525 5.83-0.714-2.487-1.882-4.525-2.947-6.664 2.665 0 5.332 0 7.997 0 1.867 5.788 4.785 10.538 6.736 16.243-11.647-0.001-23.294-0.001-34.94-0.001zM391.070 297.719c-1.187-4.38-3.213-7.928-4.63-12.078 2.385 0 4.77 0 7.156 0 0.702 4.584 4.082 8.731 4.21 12.493-1.413-0.961-4.623-0.145-6.735-0.415zM410.012 283.977c3.847-0.197 2.98 4.27 4.63 6.247-3.923 0.27-3.279-3.975-4.63-6.247zM403.697 283.142c0.74 0.24 2.473-0.502 2.525 0.417-1.224 0.316 0.382 3.431-0.84 3.747-0.281-1.665-1.045-2.853-1.685-4.165z" />
<glyph unicode="&#xe905;" horiz-adv-x="724" d="M533.352 622.965c-1.913-3.937-2.846-8.845-5.894-11.661-0.092 2.313 1.289 3.167 1.685 4.997-0.052 0.92-1.786 0.178-2.525 0.416-1.989-1.086-1.238-4.883-3.789-5.414 1.121 4.582 3.216 8.202 5.051 12.077 1.794-0.167 4.336 0.405 5.472-0.415zM526.618 617.967c1.123 0 2.245 0 3.368 0 0.432 1.516 1.325 2.576 1.683 4.165-1.123 0-2.245 0-3.368 0-0.281-1.665-1.045-2.853-1.683-4.165z" />
<glyph unicode="&#xe906;" horiz-adv-x="724" d="M528.301 622.132c1.123 0 2.245 0 3.368 0-0.359-1.589-1.25-2.649-1.683-4.165-1.123 0-2.245 0-3.368 0 0.639 1.311 1.402 2.5 1.683 4.165z" />
<glyph unicode="&#xe907;" horiz-adv-x="724" d="M511.042 616.718c1.869-0.146-0.289-2.495-0.422-3.331-0.771-1.041-0.336-3.276-2.525-2.915 1.008 2.057 1.786 4.342 2.947 6.247z" />
<glyph unicode="&#xe908;" horiz-adv-x="724" d="M504.306 614.636c0.961-0.578 0.158-2.898 0.422-4.165-0.702 0-1.402 0-2.104 0 0.639 1.311 1.402 2.5 1.682 4.165z" />
<glyph unicode="&#xe909;" horiz-adv-x="724" d="M427.271 609.222c34.42-0.415 69.844 0.552 104.819 0 1.857-0.029 4.469 0.733 5.893-0.833-0.881-2.081-3.614-1.174-5.050-1.249-34.255-1.799-70.766 1.573-105.239-0.416-2.688-2.894-2.778-8.357-5.894-10.828-1.666 0.223 0.153 1.823 0.422 2.498 1.132 2.857 2.543 6.986 4.21 9.578-0.021 0.713 0.311 1.079 0.839 1.249z" />
<glyph unicode="&#xe90a;" horiz-adv-x="724" d="M104.818 607.557c-0.339-8.233 1.888-16.497 0.421-25.404-0.622-3.772-3.47-8.475-5.473-12.91-12.562-27.816-23.492-55.149-36.202-83.291-0.978-2.164-2.611-4.429-2.947-6.247-0.622-3.364 0.518-7.679 0-10.828-0.625-3.8-3.538-9.012-5.472-13.327-13.602-30.353-26.918-61.195-39.991-91.619 0.637 10.279-2.257 26.17-0.421 36.23 0.687 3.764 3.496 8.787 5.472 13.326 20.585 47.26 41.426 94.214 61.881 141.176 7.777 17.855 15.332 35.459 22.733 52.892z" />
<glyph unicode="&#xe90b;" horiz-adv-x="724" d="M515.251 605.891c-0.578-1.606-1.749-3.222-2.526-4.997-0.697-1.596-0.516-4.502-2.946-4.582 1.904 3.115 1.861 8.154 5.472 9.578z" />
<glyph unicode="&#xe90c;" horiz-adv-x="724" d="M431.48 601.726c25.292 0.311 49.284-0.663 74.51-0.416-0.494-4.257-5.374-2.497-7.998-3.331-7.514-2.39-6.931-13.393-11.365-19.157-7.215-0.791-14.006 1.080-20.205 0-3.795-0.66-5.297-4.537-9.261-3.747-0.558 3.988 1.413 6.248 2.525 8.745 1.031 2.315 3.092 5.465 2.947 7.912-0.165 2.793-3.576 6.054-6.314 6.663-7.347 1.637-18.669-1.177-26.52-0.416 0.369 1.439 0.731 2.885 1.682 3.747z" />
<glyph unicode="&#xe90d;" horiz-adv-x="724" d="M684.054 591.731c-0.544-8.791-0.491-20.298-0.421-28.318-6.427-13.354-12.257-27.299-18.101-41.228-0.983 22.35-0.141 46.503-0.422 69.547 6.558-0.496 13.468 0.804 18.944-0.001z" />
<glyph unicode="&#xe90e;" horiz-adv-x="724" d="M87.138 332.7c-5.753 0-11.505 0-17.258 0 37.376 86.292 74.643 172.694 112.816 258.198 5.59 0.064 11.549 0.176 15.575 0.833 2.956 0.482 1.629-1.192 0.842-3.331-3.384-9.198-9.429-20.936-12.629-28.318-14.155-32.656-28.544-65.824-42.517-97.45-19.137-43.319-37.573-87.726-56.828-129.932z" />
<glyph unicode="&#xe90f;" horiz-adv-x="724" d="M455.476 591.731c-13.293-32.381-27.884-63.478-41.254-95.783-12.564-0.214-23.95 0.737-36.623 0.416-8.54-17.34-16.189-35.384-23.994-53.306-7.797-17.899-15.474-35.839-23.152-53.722 11.163-0.354 24.692 0.558 37.045 0.417-12.051-28.89-24.993-56.899-37.045-85.788-25.71-0.31-50.119 0.668-75.773 0.416 27.912 63.729 55.633 127.646 83.349 191.567-12.393 0.927-25.793 0.859-39.149 0.833 13.306 31.118 26.94 61.914 40.412 92.869 38.632 0.788 77.672 1.174 116.184 2.081z" />
<glyph unicode="&#xe910;" horiz-adv-x="724" d="M521.986 591.731c-16.515-38.771-33.647-76.934-50.094-115.773 3.091 0.275 7.292-0.551 9.682 0.416-0.583-3.22-1.987-6.389-3.368-9.578-3.986-9.211-8.894-19.097-12.629-28.735 3.041-0.189 8.339 0.126 12.629 0-2.116-6.512-5.361-11.91-7.576-18.324-3.276-0.63-8.388 0.842-11.366 0-1.77-0.499-1.585-1.237-2.947-2.081-3.087 0-6.174 0-9.261 0-5.127-8.975-8.574-18.815-12.629-28.319-11.819-27.704-25.241-56.007-37.044-84.538-7.576 0-15.154 0-22.732 0 27.441 64.193 55.789 127.491 83.35 191.567-8.279 0-16.558 0-24.837 0 10.515 25.414 22.064 49.803 32.413 75.377 8.279 0 16.556 0 24.836 0 3.682 5.798 6.067 12.877 8.841 19.573 7.872-0.152 15.322 0.114 22.732 0.417z" />
<glyph unicode="&#xe911;" horiz-adv-x="724" d="M589.761 591.731c1.537-0.606-0.158-3.386-0.842-4.997-1.966-4.629-4.759-10.266-6.736-14.992 2.807 0 5.613 0 8.419 0 0.223-13.8-0.48-28.516 0.422-41.645-8.472 0.365-17.14 0.535-26.1 0.416-1.332-1.32-1.894-3.401-2.525-5.414-6.034 0-12.068 0-18.102 0 0.308 2.194 1.432 3.582 2.104 5.414-3.508 0-7.016 0-10.524 0-1.743-1.052-1.945-3.628-2.946-5.414-6.876 0-13.752 0-20.627 0 0.809 1.559 1.574 3.162 2.104 4.997-1.832 0.965-5.467 0.145-7.998 0.416 6.127 13.791 12.29 27.545 18.102 41.645 2.583-0.22 6.094 0.477 7.997-0.416 3.042 6.152 5.742 12.644 8.419 19.157 7.41-0.251 13.996 0.314 21.048 0.416-2.942-6.252-5.548-12.836-8.419-19.157 2.306-0.911 6.269-0.184 9.261-0.416 3.681 5.798 6.067 12.877 8.84 19.573 5.928 0.243 12.86-0.507 18.101 0.417z" />
<glyph unicode="&#xe912;" horiz-adv-x="724" d="M689.527 591.731c7.576 0 15.155 0 22.732 0 0-42.478 0-84.954 0-127.434-16.278-0.277-31.603 0.384-47.567 0.417 0 8.467 0 16.935 0 25.403 7.086 1.318 16.549 0.286 23.994 1.249 0.983 32.207 0.141 66.215 0.422 99.115-0.038 0.592-0.071 1.18 0.42 1.25z" />
<glyph unicode="&#xe913;" horiz-adv-x="724" d="M224.791 591.315c18.802 0 37.605 0 56.408 0-11.102-24.971-21.834-50.308-32.836-75.377-8.138 0-16.277 0-24.415 0-10.734-21.726-19.96-44.943-29.888-67.465-15.295 0-30.589 0-45.884 0 11.993 28.391 24.614 56.163 36.623 84.54 4.989-0.077 9.087 0.727 14.312 0.416 8.677 19.18 16.533 39.173 25.68 57.887z" />
<glyph unicode="&#xe914;" horiz-adv-x="724" d="M658.377 591.315c0.445-11.836-0.111-25.815 0-36.647-2.947 0-5.894 0-8.841 0-0.892-12.859-0.879-26.615-0.84-40.395 3.227 0 6.455 0 9.682 0 0.39-13.218 0.528-26.685 0.421-40.395-1.426-0.117-2.417-0.662-4.21-0.416-1.689-2.772-2.722-6.19-4.21-9.162-4.35 0-8.699 0-13.050 0 0.814 3.082 2.344 5.455 3.368 8.329-4.234 0.948-10.224 0.157-15.154 0.417-2.071-2.255-2.599-6.037-4.21-8.745-4.517-0.577-8.846 1.238-12.629 0-0.39 2.891 2.473 6.156 3.368 9.162-2.841 0.659-6.388 0.622-9.682 0.833-0.178 13.429-0.64 26.575-0.422 40.395 3.087 0 6.174 0 9.261 0 0.962 12.62-0.564 26.367 0 39.979-5.81 0.057-10.775-0.722-16.839-0.416 5.388 12.161 10.687 24.41 15.996 36.647 16.295-0.158 32.156 0.116 47.991 0.414zM624.701 549.254c-0.53-0.171-0.861-0.538-0.842-1.249 0.31-7.884 0.574-15.813 0.421-24.154 5.801-0.324 10.358 0.581 15.997 0.416 0 8.329 0 16.659 0 24.987-5.192 0-10.385 0-15.576 0z" />
<glyph unicode="&#xe915;" horiz-adv-x="724" d="M104.818 578.406c0.744-4.663 0.421-14.209 0.421-22.071 0-7.402 1.056-15.6 0-21.655-0.679-3.889-3.878-8.261-5.893-12.91-28.083-64.783-55.531-128.21-83.771-192.816-0.774 5.251-0.421 10.336-0.421 15.408 0 5.105-1.211 10.254-0.421 15.409 0.629 4.098 3.884 9.128 5.893 13.742 12.032 27.624 23.188 53.544 35.361 81.624 3.267 7.536 7.71 13.282 5.473 24.154 14.947 32.548 29.17 65.816 43.358 99.115z" />
<glyph unicode="&#xe916;" horiz-adv-x="724" d="M682.792 552.586c0.826-16.372 0.249-37.427 0.421-55.804-6.002-0.169-12.167-0.179-17.679-0.833-0.159 5.562-1.272 10.367-0.422 15.408 0.583 3.449 3.111 6.901 4.63 10.412 4.415 10.199 8.694 20.484 13.050 30.818z" />
<glyph unicode="&#xe917;" horiz-adv-x="724" d="M640.276 549.254c0-8.329 0-16.659 0-24.987-5.64 0.164-10.198-0.74-15.997-0.416 0.153 8.34-0.111 16.269-0.421 24.154-0.019 0.712 0.313 1.079 0.842 1.249 5.192 0 10.385 0 15.576 0z" />
<glyph unicode="&#xe918;" horiz-adv-x="724" d="M604.074 547.172c0.304-8.457 0.969-18.738 0-27.069-2.789-0.732-8.135-0.614-10.944 0-0.856 5.15 3.854 4.793 4.63 8.329 0 6.247 0 12.494 0 18.741 2.104-0.001 4.208-0.001 6.314-0.001z" />
<glyph unicode="&#xe919;" horiz-adv-x="724" d="M257.626 533.429c14.031 0 28.064 0 42.095 0-32.711-76.607-66.431-152.227-99.346-228.63-14.12-0.191-29.064 0.434-42.516-0.417 33.030 76.572 66.439 152.769 99.767 229.047z" />
<glyph unicode="&#xe91a;" horiz-adv-x="724" d="M500.939 514.688c29.841-0.462 60.205-0.409 90.085-0.833 0-25.125 0-50.251 0-75.377-40.952 0.437-82.107 0.675-123.34 0.833 10.91 25.298 21.397 51.016 33.255 75.377zM497.15 457.218c24.276-0.971 50.374-0.14 75.35-0.416 0.169 13.215-0.141 25.957-0.421 38.73-18.85 0.647-38.286 0.716-57.671 0.833-6.19-12.616-11.623-25.982-17.258-39.147z" />
<glyph unicode="&#xe91b;" horiz-adv-x="724" d="M514.41 496.364c19.386-0.117 38.821-0.186 57.671-0.833 0.279-12.772 0.589-25.515 0.421-38.73-24.977 0.277-51.074-0.555-75.35 0.416 5.634 13.167 11.067 26.533 17.258 39.147zM510.621 485.121c-2.63-5.726-5.157-11.555-7.576-17.491 22.576-0.12 46.974 0.169 68.195 0 0 5.97 0 11.938 0 17.908-20.643 0.292-40.259-0.431-60.619-0.417z" />
<glyph unicode="&#xe91c;" horiz-adv-x="724" d="M290.039 493.45c0.384-0.192 2.88 0.254 3.368 0 0.214-0.112 0.208-1.292 0.842-1.666 6.527-3.861 21.789-1.393 32.413-2.082 0.353-3.581-1.159-6.837-2.526-9.994-8.678-20.051-18.139-40.034-26.52-60.802-13.050 0-26.1 0-39.149 0 1.222 6.86 4.438 13.025 7.157 19.157 8.005 18.059 16.004 36.983 24.416 55.388z" />
<glyph unicode="&#xe91d;" horiz-adv-x="724" d="M453.792 490.118c-7.574-19.161-16.412-37.070-23.995-56.22-8.279 0-16.558 0-24.837 0 5.532 13.75 11.886 27.861 18.101 42.061 1.983 4.531 3.493 9.807 5.894 13.743 0.229 0.376 0.662 1.5 1.263 0.833 8.198 0.197 15.791-0.203 23.575-0.417z" />
<glyph unicode="&#xe91e;" horiz-adv-x="724" d="M571.238 485.538c0-5.97 0-11.938 0-17.908-21.221 0.169-45.62-0.12-68.195 0 2.419 5.936 4.947 11.764 7.576 17.491 20.361-0.013 39.976 0.709 60.619 0.417z" />
<glyph unicode="&#xe91f;" horiz-adv-x="724" d="M77.035 467.63c1.259-31.377-0.415-65.655 0.842-97.032-9.482-21.019-18.742-42.261-27.783-63.716-0.861 31.493-0.196 64.495-0.842 96.199 9.109 21.666 18.961 42.599 27.783 64.55z" />
<glyph unicode="&#xe920;" horiz-adv-x="724" d="M697.104 457.218c1.798-0.167 0.401-3.49 0.842-4.998 4.911 0 9.823 0 14.733 0 0.326-19.201-0.63-37.134-0.421-56.22-4.772 0-9.542 0-14.314 0-1.944-3.075-3.317-6.714-4.63-10.412 5.348-0.955 12.476-0.151 18.522-0.417 0-26.93 0-53.861 0-80.791-37.492 0.568-72.812 0.715-110.711 0.833 1.368 12.974-1.861 23.991 0 35.4 0.421 2.574 2.153 5.894 3.369 8.744 8.045 18.86 17.492 38.244 25.258 57.471 22.73 0 45.463 0 68.194 0 4.052 7.79 7.396 16.283 10.946 24.569-2.049 0.753-1.955-2.186-2.526-3.33-1.826-3.664-4.064-8.963-5.893-12.91-10.666 0-21.329 0-31.994 0-1.536-1.951-2.114-4.849-3.368-7.079-11.927 0-23.854 0-35.781 0-2.254-3.601-3.71-7.991-5.472-12.078-7.437 0-14.874 0-22.311 0 0 18.601 0 37.203 0 55.804 6.314 0 12.629 0 18.943 0 1.118 0.977-0.311 4.472 0.842 5.414 25.26 0 50.516 0 75.774 0zM671.846 342.278c-1.889-7.853 4.672-12.318 9.683-12.077 4.66 0.224 8.928 4.44 8.84 9.578-0.096 5.616-3.661 9.132-9.682 8.744-5.132-0.328-8.18-3.501-8.841-6.246zM669.321 312.711c12.448 0.246 11.998 21.914-2.947 18.324-11.46-2.754-6.714-18.515 2.947-18.324zM694.158 312.711c12.492 0.431 11.705 21.172-2.526 18.324-10.881-2.178-9.161-18.725 2.526-18.324z" />
<glyph unicode="&#xe921;" horiz-adv-x="724" d="M151.965 435.147c-18.499-43.61-37.715-86.514-56.408-129.932-8.267 0.266-15.27-0.719-23.573-0.416 3.649 9.023 7.917 17.432 11.365 26.652 1.543 0 3.087 0 4.63 0 15.468 34.118 29.942 69.217 45.463 103.279 5.531 0.776 12.348 0.279 18.522 0.417z" />
<glyph unicode="&#xe922;" horiz-adv-x="724" d="M513.989 432.648c11.084 0 22.171 0 33.255 0-18.213-42.922-37.016-85.261-55.567-127.849-11.084 0-22.17 0-33.255 0 13.766 32.468 28.285 64.19 42.095 96.616-2.275-0.299-2.296-3.119-2.947-4.582-2.139-4.803-4.685-9.971-6.735-14.991-15.997 0-31.994 0-47.99 0 5.432 12.117 10.734 24.361 15.996 36.647 15.998-0.276 33.114 0.552 48.41-0.417 2.468 4.638 4.144 10.061 6.737 14.575z" />
<glyph unicode="&#xe923;" horiz-adv-x="724" d="M504.728 431.816c0.434-2.929-0.622-4.384-1.263-6.247-7.297 0-14.593 0-21.89 0-0.207 2.843 0.403 4.876 1.685 6.247 7.154 0 14.311 0 21.468 0z" />
<glyph unicode="&#xe924;" horiz-adv-x="724" d="M554.82 431.816c13.563 0.229 25.92-0.735 39.57-0.417 0-2.082 0-4.165 0-6.247-13.039 0.844-27.549 0.23-41.254 0.417-0.282 2.917 0.369 4.91 1.683 6.247z" />
<glyph unicode="&#xe925;" horiz-adv-x="724" d="M543.034 418.489c15.856 0 31.712 0 47.567 0 0.978-11.248 0.144-24.29 0.422-36.231-21.328 0-42.657 0-63.985 0 5.18 12.226 10.222 24.593 15.996 36.231z" />
<glyph unicode="&#xe926;" horiz-adv-x="724" d="M261.835 411.826c12.769 0 25.538 0 38.308 0-18.315-42.267-36.741-84.423-55.145-126.601-12.769 0-25.539 0-38.308 0 18.091 42.488 36.64 84.523 55.145 126.601z" />
<glyph unicode="&#xe927;" horiz-adv-x="724" d="M618.807 385.173c-5.417-13.797-11.752-26.686-17.258-40.395-0.405 12.2 0.276 26.935 0 40.395 5.752 0 11.505 0 17.258 0z" />
<glyph unicode="&#xe928;" horiz-adv-x="724" d="M480.313 374.761c0.44-3.876-1.941-7.132-3.368-10.412-9.39-21.557-18.704-43.203-28.204-65.383 4.787-1.649 11.821-1.076 18.101-1.248-0.738-3.434-2.498-5.859-3.368-9.162-6.736 0-13.471 0-20.205 0 1.304 5.084 7.249 11.936 2.525 16.657-12.78 0.962-27.355 0.147-40.833 0.417 10.579 23.266 20.216 47.464 31.151 70.379 12.644-2.481 29.576-0.724 44.201-1.249z" />
<glyph unicode="&#xe929;" horiz-adv-x="724" d="M534.615 375.178c19.926 0 39.851 0 59.777 0 0-10.272 0-20.546 0-30.818-20.238 0.31-39.356-0.488-59.355-0.416 0.129 10.402-0.032 22.735-0.422 31.234z" />
<glyph unicode="&#xe92a;" horiz-adv-x="724" d="M527.88 368.931c1.271-10.004-0.57-20.536 0-31.234 20.486-0.972 42.797-0.139 63.985-0.417-0.629-10.346-0.802-21.141-0.842-32.067-30.309 0-60.619 0-90.928 0 9.335 21.167 18.603 42.399 27.784 63.718z" />
<glyph unicode="&#xe92b;" horiz-adv-x="724" d="M680.688 348.525c6.021 0.387 9.586-3.128 9.682-8.744 0.088-5.139-4.18-9.355-8.84-9.578-5.011-0.241-11.572 4.224-9.683 12.077 0.662 2.744 3.71 5.916 8.841 6.246zM681.529 334.366c5.904 0.482 5.976 11.289-1.264 9.994-7.045-1.26-4.973-10.504 1.264-9.994z" />
<glyph unicode="&#xe92c;" horiz-adv-x="724" d="M680.266 344.361c7.239 1.294 7.169-9.512 1.264-9.994-6.237-0.51-8.309 8.734-1.264 9.994z" />
<glyph unicode="&#xe92d;" horiz-adv-x="724" d="M666.374 331.035c14.945 3.589 15.395-18.078 2.947-18.324-9.661-0.191-14.407 15.57-2.947 18.324zM669.321 316.876c2.118 0.086 5.639 1.792 5.051 6.247-0.432 3.282-3.195 4.468-5.894 4.165-7.58-0.85-5.334-10.663 0.843-10.412z" />
<glyph unicode="&#xe92e;" horiz-adv-x="724" d="M691.632 331.035c14.231 2.849 15.018-17.894 2.526-18.324-11.688-0.401-13.407 16.145-2.526 18.324zM693.736 316.876c6.494-0.029 7.82 12.748-1.683 9.996-7.092-2.057-2.508-9.976 1.683-9.996z" />
<glyph unicode="&#xe92f;" horiz-adv-x="724" d="M668.48 327.286c2.699 0.303 5.461-0.883 5.894-4.165 0.586-4.455-2.934-6.159-5.051-6.247-6.178-0.251-8.424 9.563-0.843 10.412z" />
<glyph unicode="&#xe930;" horiz-adv-x="724" d="M692.054 326.87c9.503 2.754 8.177-10.025 1.683-9.996-4.193 0.021-8.777 7.94-1.683 9.996z" />
<glyph unicode="&#xe931;" horiz-adv-x="724" d="M384.754 300.634c1.134-0.078-0.27-2.8-0.842-4.165-0.611-1.457-1.443-3.053-2.104-4.582-1.327-3.061-2.576-6.867-4.63-8.745-1.637 0.887 0.428 2.734 0.842 3.749 1.556 3.816 3.347 8.962 5.472 12.493-0.119 0.673 0.398 0.718 0.421 1.249 0.281 0.001 0.562 0.001 0.842 0.001z" />
<glyph unicode="&#xe932;" horiz-adv-x="724" d="M475.681 300.634c1.788-0.603-0.725-3.319-1.263-4.582-2-4.686-4.197-10.517-6.314-15.408-37.605-0.001-75.361 0.15-112.396-0.417 0.696 2.6 3.724 1.578 5.472 1.666 33.801 1.715 71.074-1.288 105.24 0 3.361 5.837 5.129 13.249 8.84 18.74 0.139 0.001 0.28 0.001 0.42 0.001z" />
<glyph unicode="&#xe933;" horiz-adv-x="724" d="M440.322 299.385c-1.951-5.703-4.869-10.454-6.736-16.243-2.665 0-5.332 0-7.997 0 1.065 2.139 2.233 4.177 2.947 6.664 1.349-1.441 0.952-4.61 2.525-5.83 1.629 1.475-1.483 4.716-1.263 7.495 2.226 1.824 5.031 3.075 6.314 5.831-2.576-0.643-3.957-2.472-5.472-4.165-0.895 1.321 1.579 2.864 1.263 4.997-2.118-1.303-3.098-4.527-4.21-7.079-1.104-2.537-2.434-5.329-2.526-7.496-0.569-0.4-2.18 1.711-4.63 0.833-0.126 2.347 2.87 1.602 3.789 2.914 0.073 1.185-2.755-0.502-2.104 1.249 0.426 1.384 2.25 1.383 4.21 1.249 0.266 1.93-2.302 1.055-3.789 1.249-2.536-1.655-2.043-6.309-4.63-7.913 0.567 2.698 3.336 5.216 2.525 7.913-2.264-1.37-1.601-5.635-4.21-6.664-1.46 0.692 1.868 4.818 2.104 6.664-3.105 0.236-2.537-6.609-5.472-7.913 1.065 2.555 2.182 5.060 3.368 7.496-0.219 1.391-3.788 0.946-4.63 0.417-1.759-2.285-1.886-6.186-4.21-7.913 0.752 3.004 2.738 4.787 2.946 8.329-1.917-0.879-2.051-3.522-2.946-5.413-1.153 0.94 0.276 4.437-0.842 5.413-2.171-2.015-2.638-5.718-4.21-8.329-1.66 0.573 0.386 2.618 0.842 3.749 0.639 1.587 1.249 3.3 1.683 4.581-3.39 0.113-2.070-7.91-6.314-8.329 1.8 5.854 4.686 10.634 6.736 16.243 11.646 0.001 23.292 0.001 34.94 0.001z" />
<glyph unicode="&#xe934;" horiz-adv-x="724" d="M414.642 290.223c-1.649-1.977-0.783-6.444-4.63-6.247 1.353 2.273 0.709 6.518 4.63 6.247z" />
<glyph unicode="&#xe935;" horiz-adv-x="724" d="M405.382 287.307c1.224-0.316-0.382-3.431 0.84-3.747-0.052-0.92-1.786-0.178-2.525-0.417 0.64 1.311 1.404 2.5 1.685 4.165z" />
<glyph unicode="&#xe936;" horiz-adv-x="724" d="M518.198 617.551c-3.154-0.49-1.686-5.551-4.632-6.247 0.652 2.271 1.874 3.976 2.526 6.247-2.642 0.319-2.569-5.456-4.632-7.080-1.458 0.692 1.868 4.818 2.104 6.664-0.058 1.191-1.755 0.761-2.947 0.833-2.436-1.615-1.901-6.172-4.63-7.496 1.035 2.447 2.472 4.495 2.947 7.496-1.914-0.327-1.899-2.564-2.526-4.165-1.121 0.696 0.234 3.84-0.84 4.581-2.813-1.52-2.141-6.489-5.051-7.912 0.165 3.231 3.428 5.409 2.525 8.329-2.153-2.034-2.534-5.821-4.21-8.329-1.113 0.483 0.032 2.373 0.422 3.331 1.196 2.952 3.659 6.941 4.63 10.412 11.085 0 22.171 0 33.256 0-2.018-4.528-4.177-8.918-5.894-13.743-5.443-0.525-9.308 0.507-13.471 1.249-0.257 1.921 2.665 0.695 3.368 1.666 0.9 1.632-3.277 0.303-1.683 1.249-0.497 2.626 3.053 0.322 3.368 1.249 0.281 1.805-1.953 1.121-3.368 1.249-1.783-1.568-2.329-4.359-3.368-6.664-0.722 2.114 2.056 4.346 2.105 7.080zM527.88 623.382c-1.837-3.875-3.93-7.495-5.051-12.077 2.552 0.53 1.8 4.328 3.789 5.414 0.74-0.24 2.473 0.504 2.525-0.416-0.395-1.829-1.777-2.684-1.685-4.997 3.048 2.816 3.98 7.724 5.894 11.661-1.136 0.817-3.678 0.246-5.472 0.415z" />
<glyph unicode="&#xe937;" horiz-adv-x="724" d="M397.804 298.135c-0.126-3.763-3.508-7.91-4.21-12.493-2.385 0-4.77 0-7.156 0 1.417 4.15 3.443 7.698 4.63 12.078 2.112 0.269 5.321-0.547 6.735 0.415z" />
</font>
</defs>
</svg>
